<mxfile host="app.diagrams.net" agent="Mozilla/5.0 (X11; Linux x86_64) AppleWebKit/537.36 (KHTML, like Gecko) Chrome/130.0.0.0 Safari/537.36" version="26.0.5">
  <diagram name="Page-1" id="I2y5jN4JeMFAhP5wV6ga">
    <mxGraphModel dx="673" dy="807" grid="1" gridSize="10" guides="1" tooltips="1" connect="1" arrows="1" fold="1" page="1" pageScale="1" pageWidth="850" pageHeight="1100" math="0" shadow="0">
      <root>
        <mxCell id="0" />
        <mxCell id="1" parent="0" />
        <mxCell id="wmg34C2nowhtGIrG0isN-1" value="&amp;lt;&amp;lt;device&amp;gt;&amp;gt;&lt;div&gt;UserHost&lt;/div&gt;" style="verticalAlign=top;align=left;spacingTop=8;spacingLeft=2;spacingRight=12;shape=cube;size=10;direction=south;fontStyle=4;html=1;whiteSpace=wrap;fillColor=#dae8fc;strokeColor=#6c8ebf;" parent="1" vertex="1">
          <mxGeometry x="110" y="280" width="600" height="410" as="geometry" />
        </mxCell>
        <mxCell id="wmg34C2nowhtGIrG0isN-2" value="&amp;lt;&amp;lt;jvm&amp;gt;&amp;gt;&lt;div&gt;CLI&lt;/div&gt;" style="verticalAlign=top;align=left;spacingTop=8;spacingLeft=2;spacingRight=12;shape=cube;size=10;direction=south;fontStyle=4;html=1;whiteSpace=wrap;fillColor=#ffe6cc;strokeColor=#d79b00;" parent="1" vertex="1">
          <mxGeometry x="480" y="410" width="180" height="120" as="geometry" />
        </mxCell>
        <mxCell id="wmg34C2nowhtGIrG0isN-3" value="&amp;lt;&amp;lt;jvm&amp;gt;&amp;gt;&lt;div&gt;Daemon&lt;/div&gt;" style="verticalAlign=top;align=left;spacingTop=8;spacingLeft=2;spacingRight=12;shape=cube;size=10;direction=south;fontStyle=4;html=1;whiteSpace=wrap;fillColor=#ffe6cc;strokeColor=#d79b00;" parent="1" vertex="1">
          <mxGeometry x="160" y="350" width="260" height="240" as="geometry" />
        </mxCell>
        <mxCell id="wmg34C2nowhtGIrG0isN-4" value="&amp;lt;&amp;lt;thread&amp;gt;&amp;gt;&lt;div&gt;REST-Service&lt;/div&gt;" style="verticalAlign=top;align=left;spacingTop=8;spacingLeft=2;spacingRight=12;shape=cube;size=10;direction=south;fontStyle=4;html=1;whiteSpace=wrap;fillColor=#fff2cc;strokeColor=#d6b656;" parent="1" vertex="1">
          <mxGeometry x="190" y="420" width="180" height="120" as="geometry" />
        </mxCell>
        <mxCell id="wmg34C2nowhtGIrG0isN-5" value="«database»&lt;br&gt;&lt;div&gt;SQLite&lt;/div&gt;" style="html=1;whiteSpace=wrap;fillColor=#d5e8d4;strokeColor=#82b366;align=center;" parent="1" vertex="1">
          <mxGeometry x="230" y="630" width="110" height="50" as="geometry" />
        </mxCell>
        <mxCell id="wmg34C2nowhtGIrG0isN-6" value="" style="endArrow=none;html=1;rounded=0;entryX=0.5;entryY=0;entryDx=0;entryDy=0;exitX=0;exitY=0;exitDx=240;exitDy=135;exitPerimeter=0;" parent="1" source="wmg34C2nowhtGIrG0isN-3" target="wmg34C2nowhtGIrG0isN-5" edge="1">
          <mxGeometry width="50" height="50" relative="1" as="geometry">
            <mxPoint x="275" y="620" as="sourcePoint" />
            <mxPoint x="450" y="450" as="targetPoint" />
          </mxGeometry>
        </mxCell>
        <mxCell id="wmg34C2nowhtGIrG0isN-7" value="" style="endArrow=none;html=1;rounded=0;exitX=0;exitY=0;exitDx=55;exitDy=0;exitPerimeter=0;entryX=0;entryY=0;entryDx=65;entryDy=180;entryPerimeter=0;" parent="1" source="wmg34C2nowhtGIrG0isN-4" target="wmg34C2nowhtGIrG0isN-2" edge="1">
          <mxGeometry width="50" height="50" relative="1" as="geometry">
            <mxPoint x="400" y="500" as="sourcePoint" />
            <mxPoint x="450" y="450" as="targetPoint" />
          </mxGeometry>
        </mxCell>
        <mxCell id="wmg34C2nowhtGIrG0isN-8" value="HTTP" style="text;html=1;align=center;verticalAlign=middle;resizable=0;points=[];autosize=1;strokeColor=none;fillColor=none;" parent="1" vertex="1">
          <mxGeometry x="426" y="450" width="50" height="30" as="geometry" />
        </mxCell>
        <mxCell id="wmg34C2nowhtGIrG0isN-9" value="JDBC" style="text;html=1;align=center;verticalAlign=middle;resizable=0;points=[];autosize=1;strokeColor=none;fillColor=none;" parent="1" vertex="1">
          <mxGeometry x="284" y="596" width="50" height="30" as="geometry" />
        </mxCell>
      </root>
    </mxGraphModel>
  </diagram>
</mxfile>
